<?xml version="1.0" standalone="no"?>
<!DOCTYPE svg PUBLIC "-//W3C//DTD SVG 1.1//EN" "http://www.w3.org/Graphics/SVG/1.1/DTD/svg11.dtd" >
<svg xmlns="http://www.w3.org/2000/svg">
<metadata>Generated by IcoMoon</metadata>
<defs>
<font id="icons" horiz-adv-x="512">
<font-face units-per-em="512" ascent="480" descent="-32" />
<missing-glyph horiz-adv-x="512" />
<glyph unicode="&#x20;" d="" horiz-adv-x="256" />
<glyph unicode="&#xe600;" d="M358.375 348.16l0.026-235.52-204.8 117.76z" />
<glyph unicode="&#xe601;" d="M0.064-32v475.669h82.725c-0.827-12.333 3.001-24.347-5.43-36.373-10.87-15.493-6.373-36.744 8.154-49.395 13.966-12.152 34.995-12.683 49.618-1.24 15.079 11.803 21.177 33.383 10.657 48.801-8.611 12.619-3.606 25.143-4.782 38.505h173.794c0-8.855 0.223-17.211-0.138-25.536-0.106-2.312-1.644-4.762-3.065-6.766-12.365-17.476-10.18-39.353 5.408-53.34 14.538-13.032 36.925-13.224 51.632-0.435 15.832 13.775 17.084 34.889 6.617 53.52-4.91 8.728-3.976 17.115-4.125 32.322h82.947v-475.711h-454.079zM36.914 327.042v-320.485h380.325v320.485h-380.325zM357.43 442.438c0-18.197 0.074-36.404-0.021-54.602-0.063-10.445-4.517-15.695-13.033-15.853-8.844-0.159-13.701 5.397-13.722 16.108-0.063 36.691-0.053 38.653 0 75.334 0.010 10.445 5.185 16.627 13.51 16.564 8.219-0.063 13.202-6.267 13.245-16.808 0.074-18.494 0.021-2.258 0.021-20.742zM97.73 442.651c0 18.769-0.032 2.81 0.010 21.58 0.032 9.788 5.186 15.843 13.234 15.769 8.049-0.064 13.16-6.077 13.181-15.886 0.043-36.956 0.043-39.193 0-76.16-0.010-10.838-4.74-16.214-13.701-15.959-8.42 0.244-12.694 5.567-12.715 16.065-0.043 18.207-0.010 36.394-0.010 54.591zM318.088 279.344v-46.394h-44.623v46.394h44.623zM251.599 232.897h-44.686v46.479h44.686v-46.479zM339.721 232.897v46.479h44.676v-46.479h-44.676zM273.231 35.656v46.044h44.56v-46.044h-44.56zM206.849 35.55v46.245h44.708v-46.245h-44.708zM184.579 35.443h-44.231v46.15h44.231v-46.15zM118.090 35.443h-44.167v46.256h44.167v-46.256zM384.154 101.403h-44.443v46.023h44.443v-46.023zM318.088 147.638v-46.118h-44.549v46.118h44.549zM251.705 147.531v-45.97h-44.623v45.97h44.623zM184.898 147.425v-45.853h-44.804v45.853h44.803zM73.552 101.509v46.129h44.559v-46.129h-44.559zM384.471 167.15h-44.655v46.384h44.655v-46.384zM318.088 213.491v-46.171h-44.538v46.171h44.538zM251.493 167.043h-44.432v46.394h44.432v-46.394zM184.685 213.491v-46.32h-44.613v46.341h44.644zM118.196 167.043h-44.39v46.437h44.39v-46.437z" horiz-adv-x="454" />
<glyph unicode="&#xe602;" d="M418.909 154.182c-26.926 0-50.979-11.59-67.957-29.836l-166.435 83.2c0.954 5.365 1.664 10.822 1.664 16.454s-0.71 11.089-1.664 16.454l166.435 83.2c16.978-18.246 41.030-29.836 67.957-29.836 51.433 0 93.091 41.658 93.091 93.091s-41.658 93.091-93.091 93.091-93.091-41.658-93.091-93.091c0-5.632 0.71-11.089 1.664-16.454l-166.435-83.2c-17 18.246-41.041 29.836-67.957 29.836-51.421 0-93.091-41.658-93.091-93.091s41.67-93.091 93.091-93.091c26.915 0 50.956 11.59 67.957 29.836l166.435-83.2c-0.954-5.365-1.664-10.822-1.664-16.454 0-51.433 41.658-93.091 93.091-93.091s93.091 41.658 93.091 93.091-41.658 93.091-93.091 93.091z" />
<glyph unicode="&#xe603;" d="M197.95 480c-109.193 0-197.95-88.757-197.95-197.95 0-109.208 88.757-197.95 197.95-197.95 45.864 0 87.988 15.685 121.606 41.942l-2.368-2.353 155.539-155.54 25.443 25.458-154.589 154.589c32.456 35.291 52.319 82.242 52.319 133.852 0 109.193-88.742 197.95-197.95 197.95zM197.95 444.18c89.36 0 162.131-72.788 162.131-162.131 0-89.36-72.77-162.13-162.131-162.13-89.342 0-162.131 72.77-162.131 162.13 0 89.342 72.788 162.131 162.131 162.131z" horiz-adv-x="498" />
<glyph unicode="&#xe604;" d="M138.24 128h235.52l-117.786 204.8z" />
<glyph unicode="&#xe605;" d="M373.76 332.774l-235.52 0.026 117.76-204.8z" />
<glyph unicode="&#xe606;" d="M153.625 348.16l-0.025-235.52 204.8 117.76z" />
<glyph unicode="&#xe60c;" d="M3.885 313.438l105.405 1.315v-345.159l-105.405-1.338v345.182zM197.538 313.438l100.717 1.279v-43.903l0.024-12.436c29.827 29.246 60.573 51.348 109.698 51.348 57.956 0 114.014-24.289 114.014-103.416v-236.787l-102.242-1.524v180.892c0 39.878-9.993 65.586-57.618 65.586-41.959 0-59.526-7.515-59.526-62.724v-182.217l-105.057-1.268v345.171zM115.398 422.299c0-31.866-25.833-57.698-57.699-57.698s-57.7 25.832-57.7 57.7c0 31.866 25.832 57.7 57.7 57.7 31.866 0 57.7-25.832 57.7-57.7z" horiz-adv-x="522" />
<glyph unicode="&#xe60d;" d="M287.935-32h-95.935v256h-64v88.225l64 0.029-0.104 51.976c0 71.976 19.517 115.77 104.299 115.77h70.588v-88.242h-44.115c-33.016 0-34.603-12.328-34.603-35.342l-0.131-44.162h79.345l-9.352-88.225-69.927-0.029-0.065-256z" />
<glyph unicode="&#xe60e;" d="M512 382.791c-18.838-8.354-39.082-14.001-60.33-16.54 21.686 13 38.343 33.585 46.186 58.115-20.298-12.039-42.778-20.78-66.705-25.49-19.16 20.415-46.461 33.17-76.673 33.17-58.011 0-105.044-47.029-105.044-105.039 0-8.233 0.929-16.25 2.72-23.939-87.3 4.382-164.701 46.2-216.509 109.753-9.042-15.514-14.223-33.558-14.223-52.809 0-36.444 18.544-68.596 46.73-87.433-17.219 0.546-33.416 5.271-47.577 13.139-0.010-0.438-0.010-0.878-0.010-1.321 0-50.894 36.209-93.348 84.261-103-8.813-2.4-18.094-3.686-27.674-3.686-6.769 0-13.349 0.66-19.764 1.886 13.368-41.73 52.16-72.103 98.126-72.948-35.95-28.175-81.243-44.967-130.458-44.967-8.479 0-16.84 0.497-25.058 1.47 46.486-29.805 101.701-47.197 161.021-47.197 193.211 0 298.868 160.062 298.868 298.872 0 4.554-0.103 9.084-0.305 13.59 20.528 14.81 38.336 33.31 52.418 54.374z" />
<glyph unicode="&#xe60f;" d="M10.719 223.075c0.023 21.173 17.087 38.202 38.261 38.18l416.587-0.443c21.173-0.022 38.202-17.087 38.18-38.26s-17.087-38.202-38.26-38.18l-416.587 0.443c-21.174 0.022-38.202 17.087-38.179 38.26z" horiz-adv-x="513" />
<glyph unicode="&#xe610;" d="M20.284 463.75c-20.588-20.491-20.747-53.6-0.253-74.187l164.071-165.079-166.603-166.099c-20.54-20.54-20.517-53.878 0-74.44 20.517-20.56 53.371-20.517 73.932 0l166.855 166.351 164.827-165.846c20.493-20.584 53.853-20.492 74.438 0.001 20.62 20.459 20.24 53.599-0.253 74.185l-164.827 165.846 163.566 163.062c20.54 20.54 20.77 53.625 0.253 74.187-20.519 20.562-53.625 20.77-74.186 0.252l-163.818-163.314-164.071 165.079c-20.494 20.586-53.347 20.493-73.933 0z" horiz-adv-x="513" />
<glyph unicode="&#xe611;" d="M258.635 477.5c-21.817 0-39.488-17.45-39.536-39.269l-0.538-174.818-176.709 0.264c-21.819 0-39.514-17.719-39.536-39.538-0.023-21.817 17.45-39.243 39.267-39.267l176.972-0.264-0.538-175.632c-0.049-21.819 17.719-39.486 39.537-39.536 21.819-0.115 39.218 17.718 39.267 39.536l0.538 175.632 173.478-0.264c21.819 0.001 39.514 17.451 39.536 39.269 0.023 21.819-17.45 39.513-39.269 39.536l-173.742 0.264 0.538 174.818c0.050 21.819-17.45 39.218-39.267 39.267z" horiz-adv-x="513" />
<glyph unicode="&#xe612;" d="M432 416l-240-240-112 112-80-80 192-192 320 320z" />
<glyph unicode="&#xe613;" d="M279.533 448c0 0-100.478 0-133.97 0-60.060 0-116.585-45.503-116.585-98.211 0-53.863 40.941-97.333 102.044-97.333 4.249 0 8.378 0.085 12.421 0.376-3.965-7.593-6.801-16.144-6.801-25.021 0-14.969 8.052-27.105 18.234-37.012-7.693 0-15.121-0.224-23.226-0.224-74.391 0.001-131.65-47.379-131.65-96.51 0-48.389 62.771-78.657 137.167-78.657 84.812 0 131.653 48.122 131.653 96.514 0 38.8-11.448 62.036-46.843 87.067-12.108 8.572-35.265 29.418-35.265 41.672 0 14.36 4.098 21.434 25.714 38.323 22.156 17.312 37.836 41.651 37.836 69.958 0 33.703-15.010 66.549-43.186 77.386h42.477l29.98 21.672zM232.74 120.271c1.063-4.486 1.642-9.103 1.642-13.814 0-39.1-25.196-69.655-97.487-69.655-51.421 0-88.558 32.552-88.558 71.65 0 38.321 46.063 70.222 97.482 69.666 12-0.127 23.184-2.058 33.335-5.345 27.913-19.413 47.938-30.381 53.586-52.502zM150.409 266.112c-34.519 1.032-67.318 38.613-73.276 83.93-5.958 45.333 17.185 80.021 51.694 78.995 34.505-1.037 67.319-37.407 73.279-82.729 5.953-45.33-17.195-81.229-51.697-80.196zM416 352v96h-32v-96h-96v-32h96v-96h32v96h96v32z" />
<glyph unicode="&#xe615;" d="M272.516 480c-9.579 0-18.881-6.089-22.713-14.865l-64.004-148.236-163.087-13.622c-9.583-0.907-18.112-8.178-21.058-17.342-2.946-9.164 0.172-19.692 7.433-26.013l123.045-105.281-37.161-156.084c-3.305-13.274 6.725-28.394 20.231-30.555 5.641-0.914 11.59 0.408 16.516 3.303l140.797 83.4 140.387-83.4c16.711-9.895 41.476 8.416 36.748 27.252l-37.161 156.071 123.871 105.291c7.26 6.32 10.378 16.849 7.433 26.013-2.947 9.17-11.469 16.437-21.062 17.349l-163.919 13.622-63.581 148.236c-3.832 8.776-13.134 14.865-22.713 14.865z" horiz-adv-x="545" />
<glyph unicode="&#xe618;" d="M256 480c-141.386 0-255.992-114.615-256-256 0-141.374 114.626-256 256-256 141.398 0 256 114.602 256 256 0 141.377-114.61 256-256 256zM256 428.8c54.702 0 106.082-21.344 144.769-60.031 38.691-38.678 60.031-90.063 60.031-144.769 0-112.931-91.869-204.8-204.8-204.8-112.923 0-204.8 91.873-204.8 204.8 0.004 112.931 91.877 204.8 204.8 204.8zM215.167 377.6c-5.632 0-10.24-4.608-10.24-10.24v-183.935c0-5.636 4.608-10.24 10.24-10.24h183.808c5.632 0 10.24 4.604 10.24 10.24v30.72c0 5.636-4.608 10.24-10.24 10.24h-142.848v142.975c0 5.632-4.6 10.24-10.24 10.24h-30.72z" />
<glyph unicode="&#xe61b;" d="M682.667-32s-65.422 369.778-398.222 369.778v142.222l-284.445-256 284.445-238.934v164.089c180.622 0 304-15.822 398.222-181.156z" horiz-adv-x="683" />
<glyph unicode="&#xe626;" d="M27.893 480l34.269-112.647v-73.957h28.853v77.454l33.538 109.151h-29.273l-17.865-74.573h-1.806l-18.672 74.573h-29.044zM161.362 434.549c-11.631 0-20.888-3.173-27.773-9.49-6.897-6.319-10.34-14.813-10.34-25.471v-71.349c0-11.692 3.344-21.011 10.069-27.933 6.713-6.91 15.651-10.364 26.851-10.364 11.631 0 20.778 3.356 27.392 10.057 6.639 6.7 9.958 15.921 9.958 27.7v71.122c0 10.491-3.381 19.043-10.143 25.702s-15.417 10.027-26.015 10.027zM219.256 431.053v-115.036c0-8.188 1.5-14.335 4.5-18.441 3-4.094 7.438-6.147 13.376-6.147 4.782 0 9.762 1.463 14.864 4.389s9.996 7.192 14.717 12.786v-15.208h25.584v137.661h-25.584v-104.463c-2.409-3.012-5.053-5.484-7.918-7.413-2.877-1.942-5.262-2.926-7.143-2.926-2.41 0-4.107 0.738-5.188 2.189-1.082 1.463-1.611 3.848-1.611 7.118v105.496h-25.597zM160.132 410.69c3.381 0 6.111-0.957 8.188-2.805 2.078-1.849 3.111-4.254 3.111-7.261v-74.957c0-3.701-1.008-6.615-3.036-8.716-2.041-2.115-4.795-3.159-8.262-3.159-3.381 0-6.012 1.008-7.832 3.073-1.832 2.065-2.73 5.016-2.73 8.803v74.957c0 3.007 0.971 5.412 2.914 7.261 1.955 1.846 4.524 2.805 7.647 2.805zM192.171 251.97c-43.596-0.135-86.447-1.045-128.44-2.803-33.63 0-60.934-26.961-60.934-60.206-2.017-26.322-2.883-52.62-2.804-78.954-0.079-26.322 0.787-52.657 2.804-78.992 0-33.231 27.305-60.206 60.934-60.206 47.986-2.004 97.072-2.889 147.151-2.803 50.087-0.086 99.204 0.812 147.189 2.803 33.625 0 60.931 26.974 60.931 60.206 2.017 26.334 2.889 52.669 2.803 78.991 0.086 26.334-0.787 52.632-2.803 78.954 0 33.244-27.306 60.206-60.931 60.206-47.985 2.004-97.101 2.901-147.189 2.803-6.258 0.012-12.479 0.024-18.712 0zM32.688 205.976h88.442v-27.084h-29.814v-159.519h-28.814v159.519h-29.814v27.084zM218.801 205.976h25.855v-60.082c3.442 4.192 7.106 7.377 10.991 9.565s7.795 3.307 11.753 3.307c8.102 0 14.298-2.963 18.552-8.839 4.266-5.877 6.381-14.421 6.381-25.659v-76.385c0-9.786-1.991-17.249-5.988-22.438-4.008-5.2-9.823-7.795-17.409-7.795-5.004 0-9.454 0.971-13.364 3-3.934 2.004-7.561 5.139-10.917 9.332v-10.61h-25.855v186.604zM350.498 160.487c11.716 0 20.716-3.479 27.011-10.45 6.283-6.959 9.418-16.966 9.418-30.035v-35.039h-48.944v-25.941c0-7.229 0.849-12.257 2.533-15.060s4.574-4.217 8.643-4.217c4.241 0 7.217 1.205 8.913 3.565 1.685 2.373 2.533 7.623 2.533 15.712v9.577h26.322v-10.377c0-14.114-3.197-24.712-9.602-31.855-6.418-7.143-15.995-10.721-28.745-10.721-11.446 0-20.47 3.812-27.048 11.373-6.577 7.574-9.909 17.95-9.909 31.203v61.779c0 11.95 3.639 21.712 10.868 29.236s16.56 11.25 28.007 11.25zM120.79 157.033h25.585v-105.535c0-3.271 0.541-5.618 1.623-7.070 1.058-1.463 2.779-2.188 5.176-2.188 1.893 0 4.266 0.935 7.155 2.877 2.864 1.93 5.52 4.401 7.905 7.413v104.502h25.597v-137.661h-25.597v15.221c-4.697-5.606-9.589-9.873-14.704-12.798-5.102-2.926-10.069-4.413-14.876-4.413-5.913 0-10.376 2.053-13.364 6.147-3.002 4.106-4.499 10.253-4.499 18.442v115.063zM255.34 136.906c-1.832 0-3.639-0.442-5.422-1.353-1.782-0.897-3.529-2.336-5.262-4.217v-85.754c2.078-2.238 4.082-3.861 6.036-4.844 1.955-0.996 4.008-1.5 6.184-1.5 3.123 0 5.434 0.983 6.909 2.926 1.488 1.93 2.238 5.090 2.238 9.479v71.086c0 4.635-0.947 8.151-2.779 10.561-1.808 2.409-4.438 3.615-7.905 3.615zM349.429 136.402c-4.070 0-7.020-1.267-8.803-3.762-1.771-2.496-2.644-6.615-2.644-12.368v-13.954h22.622v13.954c0 5.754-0.885 9.873-2.644 12.368-1.795 2.496-4.635 3.762-8.533 3.762z" horiz-adv-x="422" />
<glyph unicode="&#xe629;" d="M51.050 70.099h648.634c28.528 0 51.050-23.272 51.050-51.050 0-28.528-23.273-51.050-51.050-51.050h-648.634c-27.777 0-51.050 23.272-51.050 51.050 0 28.528 23.273 51.050 51.050 51.050zM51.050 275.050h648.634c28.528 0 51.050-23.273 51.050-51.050 0-28.528-23.273-51.050-51.050-51.050h-648.634c-27.777 0-51.050 22.522-51.050 51.050s23.273 51.050 51.050 51.050zM51.050 480h648.634c28.528 0 51.050-23.272 51.050-51.050 0-28.528-23.273-51.050-51.050-51.050h-648.634c-28.528 0-51.050 23.273-51.050 51.050s23.273 51.050 51.050 51.050z" horiz-adv-x="751" />
</font>
</defs>
</svg>
