<?xml version="1.0" encoding="UTF-8" standalone="no"?>
<!-- Generator: Adobe Illustrator 15.0.2, SVG Export Plug-In . SVG Version: 6.00 Build 0)  -->

<svg
   xmlns:dc="http://purl.org/dc/elements/1.1/"
   xmlns:cc="http://creativecommons.org/ns#"
   xmlns:rdf="http://www.w3.org/1999/02/22-rdf-syntax-ns#"
   xmlns:svg="http://www.w3.org/2000/svg"
   xmlns="http://www.w3.org/2000/svg"
   xmlns:sodipodi="http://sodipodi.sourceforge.net/DTD/sodipodi-0.dtd"
   xmlns:inkscape="http://www.inkscape.org/namespaces/inkscape"
   version="1.1"
   id="Layer_1"
   x="0px"
   y="0px"
   width="225"
   height="70"
   viewBox="0 0 224.99999 69.999999"
   enable-background="new 0 0 595.28 841.89"
   xml:space="preserve"
   inkscape:version="0.48.4 r9939"
   sodipodi:docname="merix_horizontal.svg"><metadata
   id="metadata49"><rdf:RDF><cc:Work
       rdf:about=""><dc:format>image/svg+xml</dc:format><dc:type
         rdf:resource="http://purl.org/dc/dcmitype/StillImage" /><dc:title></dc:title></cc:Work></rdf:RDF></metadata><defs
   id="defs47" /><sodipodi:namedview
   pagecolor="#ffffff"
   bordercolor="#666666"
   borderopacity="1"
   objecttolerance="10"
   gridtolerance="10"
   guidetolerance="10"
   inkscape:pageopacity="0"
   inkscape:pageshadow="2"
   inkscape:window-width="1536"
   inkscape:window-height="903"
   id="namedview45"
   showgrid="false"
   inkscape:zoom="4.4851464"
   inkscape:cx="115.85418"
   inkscape:cy="19.117126"
   inkscape:window-x="0"
   inkscape:window-y="0"
   inkscape:window-maximized="0"
   inkscape:current-layer="Layer_1" />
<g
   id="g3"
   transform="matrix(1.9561543,0,0,1.9561543,-469.00429,-789.49205)">
	<g
   id="g5">
		<linearGradient
   id="SVGID_1_"
   gradientUnits="userSpaceOnUse"
   x1="255.7422"
   y1="438.28809"
   x2="255.7422"
   y2="404.30231">
			<stop
   offset="0"
   style="stop-color:#D46032"
   id="stop8" />
			<stop
   offset="1"
   style="stop-color:#E1972E"
   id="stop10" />
		</linearGradient>
		<path
   d="m 255.743,438.734 c -0.568,0 -1.113,-0.133 -1.535,-0.377 l -12.428,-7.176 c -0.875,-0.506 -1.536,-1.648 -1.536,-2.658 v -14.351 c 0,-1.01 0.661,-2.153 1.535,-2.658 l 12.429,-7.176 c 0.844,-0.488 2.227,-0.488 3.069,0 l 12.428,7.176 c 0.875,0.505 1.535,1.648 1.535,2.658 v 14.351 c 0,1.01 -0.66,2.152 -1.535,2.658 l -12.428,7.176 c -0.421,0.245 -0.966,0.377 -1.534,0.377 z m 0,-33.193 c -0.287,0 -0.565,0.062 -0.745,0.166 l -12.428,7.176 c -0.383,0.221 -0.745,0.848 -0.745,1.291 v 14.351 c 0,0.443 0.362,1.069 0.745,1.291 l 12.428,7.176 c 0.359,0.208 1.13,0.208 1.49,0 l 12.428,-7.176 c 0.383,-0.222 0.745,-0.848 0.745,-1.291 v -14.351 c 0,-0.442 -0.362,-1.069 -0.745,-1.291 l -12.428,-7.176 c -0.179,-0.105 -0.459,-0.166 -0.745,-0.166 z"
   id="path12"
   inkscape:connector-curvature="0"
   style="fill:url(#SVGID_1_)" />
		<linearGradient
   id="SVGID_2_"
   gradientUnits="userSpaceOnUse"
   x1="255.7437"
   y1="435.27051"
   x2="255.7437"
   y2="405.60529">
			<stop
   offset="0"
   style="stop-color:#D46032"
   id="stop15" />
			<stop
   offset="1"
   style="stop-color:#E1972E"
   id="stop17" />
		</linearGradient>
		<path
   d="m 251.245,424.425 -0.882,-4.273 h 3.474 c 0.396,0 0.747,0.251 0.874,0.621 l 0.749,3.653 h 1.92 l -0.829,-4.038 0.003,-0.014 c -0.022,-0.081 -0.072,-0.145 -0.1,-0.221 h 3.435 c 0.396,0 0.748,0.251 0.875,0.621 l 0.748,3.653 h 1.92 l -0.828,-4.038 0.001,-0.014 c -0.319,-1.239 -1.436,-2.103 -2.716,-2.103 h -11.833 l 1.268,6.155 h 1.921 z"
   id="path19"
   inkscape:connector-curvature="0"
   style="fill:url(#SVGID_2_)" />
	</g>
	<g
   id="g21">
		<path
   d="m 287.877,419.017 c -0.698,0 -1.847,0.488 -2.018,0.565 -0.022,0.008 -0.249,0.088 -0.519,0.286 -0.314,-0.513 -0.835,-0.851 -1.425,-0.851 -0.697,0 -1.846,0.488 -2.017,0.565 -0.014,0.004 -0.094,0.034 -0.208,0.093 v -0.659 h -1.316 v 2.981 3.337 h 1.316 v -3.337 c 0,-0.899 0.575,-1.148 0.683,-1.189 0.438,-0.191 1.23,-0.475 1.542,-0.475 0.199,0 0.42,0.271 0.42,0.658 v 1.006 3.337 h 1.315 v -3.337 c 0,-0.899 0.576,-1.148 0.683,-1.189 0.438,-0.191 1.229,-0.475 1.543,-0.475 0.197,0 0.418,0.281 0.418,0.658 v 4.343 h 1.316 v -4.343 c 10e-4,-1.089 -0.778,-1.974 -1.733,-1.974 z"
   id="path23"
   inkscape:connector-curvature="0" />
		<path
   d="m 352.25,419.017 h -2.257 c -1.104,0 -2.002,0.796 -2.002,1.775 v 2.406 0.597 c 0,0.979 0.898,1.774 2.002,1.774 h 2.257 c 1.104,0 2.002,-0.796 2.002,-1.774 v -0.597 -2.406 c 0,-0.979 -0.898,-1.775 -2.002,-1.775 z m 0.687,4.777 c 0,0.218 -0.281,0.46 -0.687,0.46 h -2.257 c -0.404,0 -0.686,-0.242 -0.686,-0.46 v -0.597 -2.406 c 0,-0.217 0.281,-0.458 0.686,-0.458 h 2.257 c 0.405,0 0.687,0.241 0.687,0.458 v 2.406 0.597 z"
   id="path25"
   inkscape:connector-curvature="0" />
		<path
   d="m 296.637,423.826 c -0.123,0.125 -0.287,0.191 -0.464,0.191 h -2.85 c -0.362,0 -0.658,-0.295 -0.658,-0.656 v -0.199 h 2.865 c 1.089,0 1.975,-0.795 1.975,-1.774 v -0.596 c 0,-0.979 -0.886,-1.775 -1.975,-1.775 h -2.207 c -1.089,0 -1.975,0.796 -1.975,1.775 v 0.55 0.046 1.974 c 0,1.088 0.886,1.973 1.975,1.973 h 2.85 c 0.528,0 1.025,-0.205 1.397,-0.578 l -0.933,-0.931 z m -3.972,-2.484 v -0.55 c 0,-0.244 0.308,-0.458 0.658,-0.458 h 2.207 c 0.352,0 0.658,0.214 0.658,0.458 v 0.596 c 0,0.245 -0.307,0.459 -0.658,0.459 h -2.865 v -0.459 -0.046 z"
   id="path27"
   inkscape:connector-curvature="0" />
		<path
   d="m 319.742,421.536 h -2.456 c -0.357,-0.02 -0.605,-0.228 -0.605,-0.421 V 421.096 421 420.807 c 0,-0.202 0.27,-0.428 0.658,-0.428 h 2.673 c 0.196,0 0.383,0.061 0.511,0.167 l 0.839,-1.014 c -0.366,-0.302 -0.845,-0.469 -1.35,-0.469 h -2.673 c -1.089,0 -1.975,0.783 -1.975,1.744 v 0.193 0.097 0.019 c 0,0.962 0.886,1.744 1.975,1.744 h 2.457 c 0.357,0.021 0.605,0.229 0.605,0.422 v 0.018 0.036 0.255 c 0,0.203 -0.271,0.428 -0.659,0.428 h -3.028 c -0.196,0 -0.383,-0.061 -0.511,-0.166 l -0.839,1.014 c 0.365,0.303 0.845,0.469 1.35,0.469 h 3.028 c 1.089,0 1.975,-0.782 1.975,-1.744 v -0.255 -0.036 -0.018 c 0,-0.964 -0.886,-1.747 -1.975,-1.747 z"
   id="path29"
   inkscape:connector-curvature="0" />
		<path
   d="m 301.185,419.017 c -1.089,0 -1.974,0.796 -1.974,1.775 v 0.55 0.046 3.946 h 1.315 v -3.946 -0.046 -0.55 c 0,-0.244 0.308,-0.458 0.658,-0.458 h 2.067 v -1.316 h -2.066 z"
   id="path31"
   inkscape:connector-curvature="0" />
		<rect
   x="304.85699"
   y="419.034"
   width="1.3150001"
   height="6.3000002"
   id="rect33" />
		<path
   d="m 325.192,424.054 c -0.351,0 -0.658,-0.214 -0.658,-0.459 v -0.55 -0.046 -2.621 h 1.355 v -1.316 h -1.355 v -1.748 h -1.316 v 5.685 0.046 0.55 c 0,0.979 0.886,1.775 1.975,1.775 h 2.011 v -1.316 h -2.012 z"
   id="path35"
   inkscape:connector-curvature="0" />
		<path
   d="m 333.604,419.016 v 0.192 2.979 c 0,1.244 -0.584,1.391 -0.714,1.414 -0.472,0.115 -1.823,0.416 -2.394,0.416 -0.257,0 -0.475,-0.303 -0.475,-0.658 v -4.344 h -1.315 v 4.344 c 0,1.088 0.803,1.974 1.79,1.974 0.831,0 2.518,-0.405 2.621,-0.438 0.14,-0.015 0.309,-0.062 0.486,-0.146 v 0.584 h 1.315 v -3.146 -2.979 -0.192 h -1.314 z"
   id="path37"
   inkscape:connector-curvature="0" />
		<path
   d="m 341.506,417.14 v 2.279 c -0.145,-0.059 -0.281,-0.09 -0.394,-0.097 -0.077,-0.009 -1.906,-0.232 -2.713,-0.232 -0.987,0 -1.791,0.885 -1.791,1.974 v 0.781 1.154 0.36 c 0,1.088 0.804,1.974 1.791,1.974 0.807,0 2.636,-0.223 2.674,-0.229 0.126,-0.008 0.275,-0.041 0.433,-0.105 v 0.336 h 1.316 v -1.391 -1.488 -0.486 -1.488 -3.341 h -1.316 z m -0.553,6.655 c -0.019,0.002 -1.826,0.223 -2.554,0.223 -0.258,0 -0.475,-0.303 -0.475,-0.658 v -0.36 -1.154 -0.781 c 0,-0.356 0.217,-0.658 0.475,-0.658 0.728,0 2.535,0.22 2.562,0.223 0.201,0.034 0.544,0.356 0.544,1.339 v 0.486 c 10e-4,0.983 -0.342,1.305 -0.552,1.34 z"
   id="path39"
   inkscape:connector-curvature="0" />
		<polygon
   points="310.927,421.133 309.204,419.016 307.508,419.016 310.079,422.175 307.508,425.334 309.204,425.334 310.927,423.217 312.65,425.334 314.347,425.334 311.775,422.175 314.347,419.016 312.65,419.016 "
   id="polygon41" />
		<rect
   x="344.772"
   y="419.02499"
   width="1.399"
   height="6.309"
   id="rect43" />
	</g>
</g>
</svg>